<svg width="116" height="121" viewBox="0 0 116 121" fill="none" xmlns="http://www.w3.org/2000/svg">
<path opacity="0.5" d="M110.047 1.04688C111.641 1.04688 113 1.65625 114.125 2.875C115.344 4 115.953 5.35938 115.953 6.95312V42.9531C115.953 44.5469 115.391 45.9531 114.266 47.1719C113.141 48.2969 111.781 48.9062 110.188 49L89.2344 28.0469H104V22H83.1875L80.2344 19.0469H104V13H79.9531V18.7656L62.2344 1.04688H110.047ZM68 28.0469H74.0469L68 22V28.0469ZM74.0469 37.0469V31H68V37.0469H74.0469ZM53.7969 0.203125L115.953 62.3594L112.156 66.1562L95 49H68L56.0469 60.9531V10.0469L50 4L53.7969 0.203125Z" fill="#2196f3"/>
<path opacity="0.5" d="M12.9844 108.016C17.7656 112.703 23.4375 115.047 30 115.047C36.5625 115.047 42.1875 112.703 46.875 108.016C51.6562 103.234 54.0469 97.5625 54.0469 91C54.0469 88.9375 53.7188 86.6875 53.0625 84.25C51 84.7188 48.7031 84.9531 46.1719 84.9531C41.8594 84.9531 37.3125 83.7344 32.5312 81.2969C27.8438 78.7656 24.2812 75.7656 21.8438 72.2969C18.75 79.7969 13.5 85.1875 6.09375 88.4688C6 89.0312 5.95312 89.875 5.95312 91C5.95312 97.5625 8.29688 103.234 12.9844 108.016ZM8.76562 69.9062C14.6719 64 21.75 61.0469 30 61.0469C38.25 61.0469 45.2812 64 51.0938 69.9062C57 75.7188 59.9531 82.75 59.9531 91C59.9531 99.25 57 106.328 51.0938 112.234C45.2812 118.047 38.25 120.953 30 120.953C21.75 120.953 14.6719 118.047 8.76562 112.234C2.95312 106.328 0.046875 99.25 0.046875 91C0.046875 82.75 2.95312 75.7188 8.76562 69.9062ZM36.3281 91.4219C37.0781 90.6719 37.9688 90.2969 39 90.2969C40.0312 90.2969 40.9219 90.6719 41.6719 91.4219C42.4219 92.0781 42.7969 92.9219 42.7969 93.9531C42.7969 94.9844 42.4219 95.875 41.6719 96.625C40.9219 97.375 40.0312 97.75 39 97.75C37.9688 97.75 37.0781 97.375 36.3281 96.625C35.5781 95.875 35.2031 94.9844 35.2031 93.9531C35.2031 92.9219 35.5781 92.0781 36.3281 91.4219ZM18.3281 91.4219C19.0781 90.6719 19.9688 90.2969 21 90.2969C22.0312 90.2969 22.9219 90.6719 23.6719 91.4219C24.4219 92.0781 24.7969 92.9219 24.7969 93.9531C24.7969 94.9844 24.4219 95.875 23.6719 96.625C22.9219 97.375 22.0312 97.75 21 97.75C19.9688 97.75 19.0781 97.375 18.3281 96.625C17.5781 95.875 17.2031 94.9844 17.2031 93.9531C17.2031 92.9219 17.5781 92.0781 18.3281 91.4219Z" fill="#2196f3"/>
</svg>
